<svg width="356" height="250" viewBox="0 0 356 250" fill="none" xmlns="http://www.w3.org/2000/svg">
<path d="M300.389 172.75C300.021 172.343 299.746 171.86 299.584 171.335C299.423 170.81 299.378 170.256 299.454 169.713C299.529 169.169 299.723 168.648 300.022 168.187C300.321 167.726 300.717 167.337 301.182 167.046L298.204 154.035L304.7 156.465L306.532 168.448C306.97 169.262 307.093 170.209 306.879 171.108C306.665 172.007 306.129 172.797 305.372 173.327C304.614 173.858 303.689 174.092 302.771 173.985C301.852 173.879 301.005 173.439 300.389 172.75Z" fill="#FFB8B8"/>
<path d="M299.937 162.424L294.227 151.383L294.999 123.582L295.366 124.355C295.793 125.256 305.813 146.468 305.099 153.569L306.244 160.059L299.937 162.424Z" fill="#3F3D56"/>
<path d="M296.216 244.018H300.795L302.973 226.355L296.215 226.356L296.216 244.018Z" fill="#FFB8B8"/>
<path d="M295.047 242.523L304.065 242.522H304.065C305.589 242.522 307.051 243.128 308.129 244.206C309.207 245.283 309.812 246.745 309.812 248.269V248.456L295.047 248.457L295.047 242.523Z" fill="#2F2E41"/>
<path d="M250.973 240.538L255.385 241.764L262.216 225.332L255.704 223.521L250.973 240.538Z" fill="#FFB8B8"/>
<path d="M250.246 238.784L258.934 241.2L258.935 241.2C260.403 241.609 261.649 242.584 262.399 243.911C263.148 245.238 263.34 246.808 262.932 248.277L262.882 248.457L248.656 244.501L250.246 238.784Z" fill="#2F2E41"/>
<path d="M291.65 237.132L282.408 170.963L262.448 236.758L246.754 231.399L269.248 143.298L269.396 143.287L292.96 141.648L309.985 231.784L291.65 237.132Z" fill="#2F2E41"/>
<path d="M289.206 112.118C289.206 112.118 280.616 107.636 269.037 109.503C269.037 109.503 262.874 124.371 269.037 130.29L270.718 145.173C270.718 145.173 286.405 154.51 291.634 143.679L290.887 131.353C290.887 131.353 294.622 125.442 291.634 121.114C289.843 118.471 288.988 115.303 289.206 112.118Z" fill="#1F8B8B"/>
<path d="M290.292 179.813L291.8 148.525L287.533 111.305L287.729 111.275C293.326 110.431 295.122 120.075 295.195 120.486L304.939 175.573L290.292 179.813Z" fill="#3F3D56"/>
<path d="M271.298 180.138L254.074 178.225L254.078 178.036C254.139 175.486 255.622 115.531 259.776 111.285C263.955 107.014 271.84 108.862 272.174 108.943L272.34 108.983L270.923 134.353L271.298 180.138Z" fill="#3F3D56"/>
<path d="M274.47 144.305C273.949 144.476 273.396 144.531 272.851 144.465C272.305 144.4 271.781 144.215 271.315 143.925C270.849 143.635 270.452 143.247 270.152 142.786C269.853 142.326 269.657 141.806 269.581 141.262L256.482 138.696L261.343 133.748L273.036 136.944C273.958 136.875 274.873 137.147 275.608 137.708C276.342 138.269 276.846 139.08 277.023 139.987C277.2 140.895 277.037 141.835 276.567 142.631C276.097 143.427 275.351 144.023 274.47 144.305Z" fill="#FFB8B8"/>
<path d="M267.482 141.301L263.214 140.384C256.913 142.279 245.916 135.608 241.471 132.645C240.634 132.087 240.363 130.983 240.664 129.362C241.109 127.095 242.359 125.066 244.183 123.648L259.837 111.235L263.788 110.575L264.962 117.225L254.988 127.938L269.67 135.93L267.482 141.301Z" fill="#3F3D56"/>
<path d="M265.793 103.873V95.249C265.793 91.6004 267.242 88.1012 269.822 85.5212C272.402 82.9412 275.902 81.4918 279.55 81.4918C283.199 81.4918 286.698 82.9412 289.278 85.5212C291.858 88.1012 293.308 91.6004 293.308 95.249V103.873C293.307 104.363 293.112 104.833 292.766 105.179C292.419 105.526 291.949 105.72 291.46 105.721H267.641C267.151 105.72 266.681 105.526 266.335 105.179C265.988 104.833 265.794 104.363 265.793 103.873Z" fill="#2F2E41"/>
<path d="M278.997 105.636C284.568 105.636 289.084 101.12 289.084 95.5499C289.084 89.9794 284.568 85.4636 278.997 85.4636C273.427 85.4636 268.911 89.9794 268.911 95.5499C268.911 101.12 273.427 105.636 278.997 105.636Z" fill="#FFB8B8"/>
<path d="M268.635 95.5108C268.538 95.3996 268.467 95.2689 268.425 95.1277C268.384 94.9865 268.373 94.838 268.394 94.6923L269.589 86.3723C269.613 86.203 269.678 86.0423 269.78 85.9047C269.881 85.7671 270.015 85.657 270.17 85.5843C276.268 82.7301 282.453 82.7264 288.551 85.5734C288.713 85.6501 288.852 85.7675 288.955 85.914C289.058 86.0606 289.121 86.2314 289.138 86.4096L289.936 94.7404C289.949 94.8828 289.933 95.0265 289.888 95.1623C289.843 95.2981 289.77 95.4229 289.673 95.5288C289.577 95.6347 289.46 95.7193 289.329 95.7772C289.198 95.8351 289.057 95.8649 288.914 95.8649H286.891C286.696 95.8644 286.504 95.8085 286.34 95.7036C286.175 95.5988 286.044 95.4493 285.961 95.2726L285.088 93.4021C285.031 93.281 284.937 93.1815 284.819 93.1188C284.701 93.056 284.566 93.0332 284.434 93.054C284.302 93.0748 284.18 93.138 284.087 93.234C283.994 93.33 283.935 93.4536 283.918 93.5862L283.746 94.9654C283.714 95.2136 283.594 95.4419 283.406 95.6075C283.219 95.7731 282.977 95.8646 282.727 95.8649H269.41C269.263 95.8649 269.118 95.8333 268.984 95.7722C268.85 95.7111 268.731 95.622 268.635 95.5108Z" fill="#2F2E41"/>
<path d="M226.276 16.577H0V157.482H226.276V16.577Z" fill="#E6E6E6"/>
<path d="M56.6154 43.7219H15.1729V70.6595H56.6154V43.7219Z" fill="white"/>
<path d="M108.111 43.7219H66.6685V70.6595H108.111V43.7219Z" fill="white"/>
<path d="M159.608 43.7219H118.165V70.6595H159.608V43.7219Z" fill="white"/>
<path d="M211.103 43.7219H169.661V70.6595H211.103V43.7219Z" fill="white"/>
<path d="M56.6154 81.8491H15.1729V108.787H56.6154V81.8491Z" fill="white"/>
<path d="M108.111 81.8491H66.6685V108.787H108.111V81.8491Z" fill="white"/>
<path d="M159.608 81.8491H118.165V108.787H159.608V81.8491Z" fill="white"/>
<path d="M211.103 81.8491H169.661V108.787H211.103V81.8491Z" fill="white"/>
<path d="M56.6154 119.976H15.1729V146.914H56.6154V119.976Z" fill="white"/>
<path d="M108.111 119.976H66.6685V146.914H108.111V119.976Z" fill="white"/>
<path d="M159.608 119.976H118.165V146.914H159.608V119.976Z" fill="white"/>
<path d="M211.103 119.976H169.661V146.914H211.103V119.976Z" fill="white"/>
<path d="M59.2637 33.1541C62.697 33.1541 65.4801 30.3709 65.4801 26.9377C65.4801 23.5045 62.697 20.7213 59.2637 20.7213C55.8305 20.7213 53.0474 23.5045 53.0474 26.9377C53.0474 30.3709 55.8305 33.1541 59.2637 33.1541Z" fill="white"/>
<path d="M162.04 33.1541C165.473 33.1541 168.256 30.3709 168.256 26.9377C168.256 23.5045 165.473 20.7213 162.04 20.7213C158.606 20.7213 155.823 23.5045 155.823 26.9377C155.823 30.3709 158.606 33.1541 162.04 33.1541Z" fill="white"/>
<path d="M61.7505 0H56.7773V28.5954H61.7505V0Z" fill="#E6E6E6"/>
<path d="M164.526 0H159.553V28.5954H164.526V0Z" fill="#E6E6E6"/>
<path d="M199.753 57.1908C199.751 59.4413 198.936 61.6155 197.46 63.3138C195.983 65.0122 193.943 66.1206 191.715 66.4354C189.486 66.7502 187.219 66.2502 185.33 65.0274C183.44 63.8046 182.056 61.941 181.43 59.7791C180.805 57.6173 180.98 55.3023 181.925 53.2595C182.87 51.2168 184.52 49.5836 186.572 48.6599C188.624 47.7363 190.941 47.5842 193.096 48.2318C195.252 48.8793 197.101 50.2829 198.304 52.1846C199.252 53.6822 199.754 55.4185 199.753 57.1908Z" fill="#1F8B8B"/>
<path d="M198.305 52.1844L189.08 61.4079C188.5 60.5103 185.27 56.3387 185.27 56.3387C185.684 55.9203 186.126 55.5303 186.592 55.1715L189.271 58.7429L197.225 50.7889C197.628 51.2189 197.99 51.6862 198.305 52.1844Z" fill="white"/>
<path d="M96.7614 95.3178C96.7593 97.5684 95.9451 99.7425 94.4684 101.441C92.9917 103.139 90.9517 104.248 88.7233 104.562C86.4949 104.877 84.2277 104.377 82.3384 103.154C80.449 101.932 79.0644 100.068 78.439 97.9062C77.8135 95.7443 77.9892 93.4293 78.9338 91.3866C79.8784 89.3439 81.5284 87.7106 83.5806 86.787C85.6329 85.8633 87.9496 85.7113 90.1049 86.3588C92.2603 87.0063 94.1096 88.4099 95.3131 90.3116C96.2608 91.8093 96.7631 93.5455 96.7614 95.3178Z" fill="#1F8B8B"/>
<path d="M95.3139 90.3118L86.0888 99.5352C85.509 98.6376 82.2788 94.466 82.2788 94.466C82.6928 94.0476 83.1345 93.6577 83.6011 93.2988L86.2797 96.8703L94.2337 88.9163C94.637 89.3463 94.9987 89.8136 95.3139 90.3118Z" fill="white"/>
<path d="M45.2669 95.3179C45.2648 97.5684 44.4506 99.7426 42.9739 101.441C41.4972 103.139 39.4572 104.248 37.2287 104.562C35.0003 104.877 32.7331 104.377 30.8438 103.155C28.9544 101.932 27.5698 100.068 26.9443 97.9062C26.3189 95.7443 26.4946 93.4293 27.4392 91.3866C28.3838 89.3439 30.0338 87.7106 32.0861 86.787C34.1383 85.8633 36.455 85.7113 38.6104 86.3588C40.7658 87.0063 42.6151 88.4099 43.8186 90.3117C44.7663 91.8093 45.2686 93.5456 45.2669 95.3179Z" fill="#1F8B8B"/>
<path d="M43.8203 90.3118L34.5952 99.5352C34.0154 98.6376 30.7852 94.466 30.7852 94.466C31.1991 94.0476 31.6409 93.6577 32.1074 93.2988L34.786 96.8703L42.74 88.9163C43.1434 89.3463 43.5051 89.8136 43.8203 90.3118Z" fill="white"/>
<path d="M355.026 250H199.322C199.213 250 199.109 249.885 199.033 249.682C198.956 249.478 198.913 249.201 198.913 248.913C198.913 248.625 198.956 248.348 199.033 248.144C199.109 247.941 199.213 247.826 199.322 247.826H355.026C355.135 247.826 355.238 247.941 355.315 248.144C355.392 248.348 355.435 248.625 355.435 248.913C355.435 249.201 355.392 249.478 355.315 249.682C355.238 249.885 355.135 250 355.026 250Z" fill="#DDDDDD"/>
</svg>
