<svg width="20" height="23" viewBox="0 0 20 23" fill="none" xmlns="http://www.w3.org/2000/svg">
<path d="M19.2 3.2C19.2 2.77565 19.0314 2.36869 18.7314 2.06863C18.4313 1.76857 18.0243 1.6 17.6 1.6H14.4V0H12.8V1.6H6.4V0H4.8V1.6H1.6C1.17565 1.6 0.768687 1.76857 0.468629 2.06863C0.168571 2.36869 0 2.77565 0 3.2V19.2C0 19.6243 0.168571 20.0313 0.468629 20.3314C0.768687 20.6314 1.17565 20.8 1.6 20.8H4.8V19.2H1.6V3.2H4.8V4.8H6.4V3.2H12.8V4.8H14.4V3.2H17.6V8H19.2V3.2Z" fill="#1F8B8B"/>
<path d="M13.6002 10.4L15.6394 14.3504L20.0002 14.9832L16.8002 18.0584L17.6002 22.4L13.6002 20.3504L9.6002 22.4L10.4002 18.0584L7.2002 14.9832L11.6802 14.3504L13.6002 10.4Z" fill="#1F8B8B"/>
</svg>
