<svg width="524" height="368" viewBox="0 0 524 368" fill="none" xmlns="http://www.w3.org/2000/svg">
<path d="M442.172 254.288C441.63 253.689 441.226 252.978 440.988 252.205C440.75 251.433 440.684 250.617 440.796 249.817C440.907 249.016 441.192 248.25 441.632 247.572C442.072 246.893 442.654 246.32 443.34 245.891L438.956 226.739L448.518 230.317L451.215 247.955C451.859 249.154 452.041 250.547 451.726 251.871C451.411 253.195 450.621 254.357 449.507 255.138C448.392 255.918 447.03 256.263 445.678 256.106C444.326 255.95 443.079 255.303 442.172 254.288Z" fill="#FFB8B8"/>
<path d="M441.508 239.087L433.102 222.836L434.238 181.913L434.779 183.051C435.408 184.377 450.157 215.601 449.105 226.054L450.791 235.606L441.508 239.087Z" fill="#3F3D56"/>
<path d="M436.03 359.194H442.77L445.977 333.195L436.028 333.196L436.03 359.194Z" fill="#FFB8B8"/>
<path d="M434.309 356.994L447.583 356.993H447.584C449.827 356.993 451.979 357.884 453.565 359.471C455.152 361.057 456.043 363.209 456.043 365.452V365.727L434.309 365.728L434.309 356.994Z" fill="#2F2E41"/>
<path d="M369.434 354.072L375.928 355.877L385.983 331.688L376.398 329.023L369.434 354.072Z" fill="#FFB8B8"/>
<path d="M368.362 351.49L381.152 355.046L381.152 355.047C383.314 355.648 385.148 357.083 386.251 359.036C387.355 360.99 387.637 363.301 387.036 365.463L386.962 365.728L366.022 359.905L368.362 351.49Z" fill="#2F2E41"/>
<path d="M429.309 349.059L415.705 251.658L386.324 348.508L363.222 340.619L396.333 210.934L396.551 210.919L431.237 208.506L456.298 341.187L429.309 349.059Z" fill="#2F2E41"/>
<path d="M425.711 165.037C425.711 165.037 413.066 158.44 396.022 161.189C396.022 161.189 386.95 183.075 396.022 191.787L398.496 213.694C398.496 213.694 421.588 227.439 429.285 211.495L428.185 193.352C428.185 193.352 433.683 184.65 429.285 178.28C426.649 174.389 425.39 169.727 425.711 165.037Z" fill="#1F8B8B"/>
<path d="M427.311 264.684L429.531 218.628L423.249 163.84L423.537 163.797C431.777 162.554 434.42 176.75 434.528 177.355L448.871 258.443L427.311 264.684Z" fill="#3F3D56"/>
<path d="M399.352 265.164L373.997 262.347L374.004 262.07C374.094 258.316 376.276 170.063 382.391 163.812C388.542 157.525 400.149 160.245 400.64 160.365L400.885 160.424L398.799 197.767L399.352 265.164Z" fill="#3F3D56"/>
<path d="M404.02 212.417C403.252 212.669 402.438 212.749 401.636 212.653C400.834 212.556 400.062 212.285 399.376 211.858C398.69 211.431 398.105 210.858 397.664 210.181C397.223 209.504 396.936 208.738 396.822 207.938L377.542 204.16L384.696 196.877L401.909 201.581C403.266 201.48 404.613 201.88 405.694 202.706C406.776 203.531 407.517 204.725 407.777 206.061C408.038 207.396 407.799 208.781 407.107 209.953C406.414 211.124 405.316 212.001 404.02 212.417Z" fill="#FFB8B8"/>
<path d="M393.732 207.996L387.45 206.645C378.176 209.435 361.987 199.615 355.444 195.253C354.213 194.433 353.814 192.807 354.257 190.421C354.912 187.084 356.751 184.097 359.436 182.01L382.479 163.739L388.296 162.766L390.023 172.556L375.342 188.325L396.954 200.089L393.732 207.996Z" fill="#3F3D56"/>
<path d="M391.247 152.901V140.206C391.247 134.835 393.381 129.685 397.178 125.887C400.976 122.089 406.127 119.956 411.498 119.956C416.869 119.956 422.019 122.089 425.817 125.887C429.615 129.685 431.749 134.835 431.749 140.206V152.901C431.748 153.622 431.461 154.313 430.951 154.823C430.441 155.333 429.749 155.62 429.028 155.621H393.967C393.246 155.62 392.555 155.333 392.045 154.823C391.535 154.313 391.248 153.622 391.247 152.901Z" fill="#2F2E41"/>
<path d="M410.684 155.496C418.884 155.496 425.531 148.849 425.531 140.649C425.531 132.45 418.884 125.802 410.684 125.802C402.484 125.802 395.837 132.45 395.837 140.649C395.837 148.849 402.484 155.496 410.684 155.496Z" fill="#FFB8B8"/>
<path d="M395.43 140.592C395.288 140.428 395.183 140.236 395.122 140.028C395.061 139.82 395.045 139.602 395.076 139.387L396.835 127.14C396.87 126.891 396.966 126.654 397.115 126.452C397.265 126.249 397.462 126.087 397.69 125.98C406.667 121.779 415.77 121.774 424.747 125.964C424.985 126.077 425.19 126.25 425.342 126.466C425.493 126.681 425.586 126.933 425.611 127.195L426.785 139.458C426.805 139.668 426.781 139.879 426.715 140.079C426.648 140.279 426.541 140.463 426.399 140.619C426.257 140.775 426.085 140.899 425.892 140.984C425.699 141.069 425.491 141.113 425.28 141.113H422.303C422.015 141.113 421.734 141.03 421.492 140.876C421.249 140.722 421.056 140.502 420.933 140.241L419.648 137.488C419.565 137.31 419.426 137.163 419.253 137.071C419.079 136.979 418.88 136.945 418.686 136.976C418.491 137.006 418.312 137.099 418.175 137.241C418.039 137.382 417.951 137.564 417.927 137.759L417.673 139.789C417.627 140.155 417.449 140.491 417.173 140.734C416.897 140.978 416.542 141.113 416.174 141.113H396.572C396.355 141.113 396.141 141.067 395.944 140.977C395.747 140.887 395.572 140.756 395.43 140.592Z" fill="#2F2E41"/>
<path d="M333.079 24.4014H0V231.813H333.079V24.4014Z" fill="#E6E6E6"/>
<path d="M83.3375 64.3584H22.334V104.011H83.3375V64.3584Z" fill="white"/>
<path d="M159.138 64.3584H98.1348V104.011H159.138V64.3584Z" fill="white"/>
<path d="M234.942 64.3584H173.938V104.011H234.942V64.3584Z" fill="white"/>
<path d="M310.745 64.3584H249.741V104.011H310.745V64.3584Z" fill="white"/>
<path d="M83.3375 120.482H22.334V160.134H83.3375V120.482Z" fill="white"/>
<path d="M159.138 120.482H98.1348V160.134H159.138V120.482Z" fill="white"/>
<path d="M234.942 120.482H173.938V160.134H234.942V120.482Z" fill="white"/>
<path d="M310.745 120.482H249.741V160.134H310.745V120.482Z" fill="white"/>
<path d="M83.3375 176.605H22.334V216.257H83.3375V176.605Z" fill="white"/>
<path d="M159.138 176.605H98.1348V216.257H159.138V176.605Z" fill="white"/>
<path d="M234.942 176.605H173.938V216.257H234.942V176.605Z" fill="white"/>
<path d="M310.745 176.605H249.741V216.257H310.745V176.605Z" fill="white"/>
<path d="M87.2374 48.8025C92.2911 48.8025 96.388 44.7057 96.388 39.652C96.388 34.5983 92.2911 30.5015 87.2374 30.5015C82.1837 30.5015 78.0869 34.5983 78.0869 39.652C78.0869 44.7057 82.1837 48.8025 87.2374 48.8025Z" fill="white"/>
<path d="M238.523 48.8025C243.576 48.8025 247.673 44.7057 247.673 39.652C247.673 34.5983 243.576 30.5015 238.523 30.5015C233.469 30.5015 229.372 34.5983 229.372 39.652C229.372 44.7057 233.469 48.8025 238.523 48.8025Z" fill="white"/>
<path d="M90.8966 0H83.5762V42.0924H90.8966V0Z" fill="#E6E6E6"/>
<path d="M242.184 0H234.863V42.0924H242.184V0Z" fill="#E6E6E6"/>
<path d="M294.037 84.1844C294.034 87.4972 292.835 90.6976 290.662 93.1976C288.488 95.6975 285.485 97.3291 282.205 97.7924C278.925 98.2558 275.587 97.5199 272.806 95.7199C270.025 93.9199 267.987 91.1768 267.066 87.9945C266.146 84.8122 266.404 81.4045 267.795 78.3976C269.185 75.3908 271.614 72.9866 274.635 71.627C277.656 70.2674 281.066 70.0436 284.239 70.9967C287.411 71.9499 290.134 74.016 291.905 76.8153C293.3 79.0198 294.04 81.5756 294.037 84.1844Z" fill="#1F8B8B"/>
<path d="M291.905 76.8159L278.325 90.3928C277.472 89.0715 272.717 82.9309 272.717 82.9309C273.326 82.315 273.976 81.741 274.663 81.2128L278.606 86.47L290.314 74.7617C290.908 75.3947 291.441 76.0825 291.905 76.8159Z" fill="white"/>
<path d="M142.434 140.308C142.43 143.621 141.232 146.821 139.058 149.321C136.884 151.821 133.882 153.453 130.601 153.916C127.321 154.379 123.984 153.643 121.203 151.843C118.422 150.043 116.384 147.3 115.463 144.118C114.542 140.936 114.801 137.528 116.191 134.521C117.582 131.514 120.01 129.11 123.031 127.751C126.052 126.391 129.462 126.167 132.635 127.12C135.808 128.073 138.53 130.139 140.302 132.939C141.697 135.143 142.436 137.699 142.434 140.308Z" fill="#1F8B8B"/>
<path d="M140.301 132.939L126.722 146.516C125.868 145.195 121.113 139.054 121.113 139.054C121.723 138.439 122.373 137.865 123.06 137.336L127.003 142.594L138.711 130.885C139.305 131.518 139.837 132.206 140.301 132.939Z" fill="white"/>
<path d="M66.6329 140.308C66.6298 143.621 65.4312 146.821 63.2575 149.321C61.0838 151.821 58.081 153.453 54.8007 153.916C51.5205 154.379 48.1832 153.644 45.402 151.844C42.6209 150.044 40.5827 147.3 39.6621 144.118C38.7414 140.936 39 137.528 40.3904 134.521C41.7809 131.514 44.2097 129.11 47.2307 127.751C50.2516 126.391 53.6618 126.167 56.8345 127.12C60.0072 128.073 62.7294 130.14 64.5009 132.939C65.896 135.143 66.6354 137.699 66.6329 140.308Z" fill="#1F8B8B"/>
<path d="M64.5032 132.939L50.9238 146.516C50.0703 145.195 45.3154 139.054 45.3154 139.054C45.9248 138.439 46.5751 137.865 47.2618 137.336L51.2047 142.594L62.913 130.885C63.5067 131.518 64.0392 132.206 64.5032 132.939Z" fill="white"/>
<path d="M522.598 368H293.401C293.242 368 293.089 367.832 292.976 367.532C292.863 367.232 292.8 366.825 292.8 366.4C292.8 365.976 292.863 365.569 292.976 365.269C293.089 364.969 293.242 364.8 293.401 364.8H522.598C522.758 364.8 522.911 364.969 523.024 365.269C523.136 365.569 523.2 365.976 523.2 366.4C523.2 366.825 523.136 367.232 523.024 367.532C522.911 367.832 522.758 368 522.598 368Z" fill="#DDDDDD"/>
</svg>
