<svg width="20" height="20" viewBox="0 0 20 20" fill="none" xmlns="http://www.w3.org/2000/svg">
<path d="M2.22222 2.22222H8.88889C9.5 2.22222 10 1.72222 10 1.11111C10 0.5 9.5 0 8.88889 0H2.22222C1 0 0 1 0 2.22222V17.7778C0 19 1 20 2.22222 20H8.88889C9.5 20 10 19.5 10 18.8889C10 18.2778 9.5 17.7778 8.88889 17.7778H2.22222V2.22222Z" fill="#999999"/>
<path d="M19.6114 9.61109L16.5114 6.51109C16.4342 6.43171 16.335 6.37718 16.2265 6.3545C16.1181 6.33182 16.0053 6.34202 15.9027 6.38378C15.8001 6.42554 15.7123 6.49697 15.6505 6.58893C15.5887 6.68089 15.5558 6.78919 15.5559 6.89998V8.88887H7.7781C7.16699 8.88887 6.66699 9.38887 6.66699 9.99998C6.66699 10.6111 7.16699 11.1111 7.7781 11.1111H15.5559V13.1C15.5559 13.6 16.1559 13.8444 16.5003 13.4889L19.6003 10.3889C19.8225 10.1778 19.8225 9.8222 19.6114 9.61109Z" fill="#999999"/>
</svg>
