<svg width="40" height="40" viewBox="0 0 40 40" fill="none" xmlns="http://www.w3.org/2000/svg">
<rect width="40" height="40" rx="10" fill="#222222"/>
<path d="M20.2383 17.1875H18.8203C18.2188 17.1875 17.7852 17.0352 17.5195 16.7305C17.2539 16.418 17.1211 16.0078 17.1211 15.5C17.1211 14.375 17.9609 13.8125 19.6406 13.8125C21.2188 13.8125 22.4062 14.0469 23.2031 14.5156L22.5234 15.0312C21.9766 14.7812 21.0156 14.6562 19.6406 14.6562C18.9688 14.6562 18.5156 14.7305 18.2812 14.8789C18.0547 15.0273 17.9414 15.2344 17.9414 15.5C17.9414 15.7656 18.0039 15.9727 18.1289 16.1211C18.2539 16.2695 18.4844 16.3438 18.8203 16.3438H20.2734C21.3281 16.3438 22.2773 16.5234 23.1211 16.8828C23.9727 17.2422 24.6719 17.7344 25.2188 18.3594C25.7656 18.9766 26.1836 19.6914 26.4727 20.5039C26.7617 21.3086 26.9062 22.1719 26.9062 23.0938C26.9062 23.8438 26.8008 24.5547 26.5898 25.2266C26.3789 25.8984 26.0586 26.5156 25.6289 27.0781C25.207 27.6406 24.6953 28.1289 24.0938 28.543C23.5 28.9492 22.7891 29.2656 21.9609 29.4922C21.1406 29.7266 20.25 29.8438 19.2891 29.8438C17.7812 29.8438 16.3672 29.6133 15.0469 29.1523C13.7344 28.6992 12.6406 28.0625 11.7656 27.2422L12.4453 26.7383C13.2422 27.457 14.2383 28.0156 15.4336 28.4141C16.6367 28.8047 17.9219 29 19.2891 29C20.3594 29 21.3242 28.8477 22.1836 28.543C23.0508 28.2305 23.7617 27.8047 24.3164 27.2656C24.8789 26.7266 25.3086 26.1016 25.6055 25.3906C25.9102 24.6797 26.0625 23.9141 26.0625 23.0938C26.0625 22.0078 25.8438 21.0273 25.4062 20.1523C24.9688 19.2695 24.3008 18.5547 23.4023 18.0078C22.5117 17.4609 21.457 17.1875 20.2383 17.1875ZM18.8203 18.0312H20.1562C21.7422 18.0312 22.9805 18.5156 23.8711 19.4844C24.7695 20.4531 25.2188 21.6562 25.2188 23.0938C25.2188 24.5547 24.6992 25.7656 23.6602 26.7266C22.6211 27.6797 21.1641 28.1562 19.2891 28.1562C18.0391 28.1562 16.8711 27.9844 15.7852 27.6406C14.6992 27.2969 13.7969 26.8125 13.0781 26.1875L13.7344 25.6602C14.375 26.1836 15.1797 26.5898 16.1484 26.8789C17.125 27.168 18.1719 27.3125 19.2891 27.3125C20.9375 27.3125 22.1953 26.918 23.0625 26.1289C23.9375 25.3398 24.375 24.3281 24.375 23.0938C24.375 21.875 24.0078 20.8672 23.2734 20.0703C22.5469 19.2734 21.5039 18.875 20.1445 18.875H18.8203C17.6797 18.875 16.8242 18.5625 16.2539 17.9375C15.6836 17.3125 15.3984 16.5 15.3984 15.5C15.3984 14.5 15.75 13.6875 16.4531 13.0625C17.1641 12.4375 18.2266 12.125 19.6406 12.125C20.6328 12.125 21.5547 12.2422 22.4062 12.4766C23.2578 12.7031 23.9609 13.0312 24.5156 13.4609L23.8477 13.9766C22.8711 13.3047 21.4688 12.9688 19.6406 12.9688C18.4609 12.9688 17.5977 13.2031 17.0508 13.6719C16.5117 14.1328 16.2422 14.7422 16.2422 15.5C16.2422 16.2656 16.4414 16.8789 16.8398 17.3398C17.2461 17.8008 17.9062 18.0312 18.8203 18.0312ZM18.8203 19.7188H20.1094C21.25 19.7188 22.1055 20.0352 22.6758 20.668C23.2461 21.3008 23.5312 22.1094 23.5312 23.0938C23.5312 24.0938 23.1758 24.9062 22.4648 25.5312C21.7617 26.1562 20.7031 26.4688 19.2891 26.4688C18.2969 26.4688 17.3711 26.3555 16.5117 26.1289C15.6602 25.8945 14.957 25.5625 14.4023 25.1328L15.0703 24.6172C16.0469 25.2891 17.4531 25.625 19.2891 25.625C20.4688 25.625 21.3281 25.3945 21.8672 24.9336C22.4141 24.4648 22.6875 23.8516 22.6875 23.0938C22.6875 22.3359 22.4844 21.7266 22.0781 21.2656C21.6719 20.7969 21.0117 20.5625 20.0977 20.5625H18.8203C17.2188 20.5625 15.9648 20.0859 15.0586 19.1328C14.1602 18.1719 13.7109 16.9609 13.7109 15.5C13.7109 14.0391 14.2305 12.832 15.2695 11.8789C16.3086 10.918 17.7656 10.4375 19.6406 10.4375C20.8906 10.4375 22.0547 10.6094 23.1328 10.9531C24.2188 11.2969 25.1211 11.7812 25.8398 12.4062L25.1836 12.9336C24.543 12.4102 23.7383 12.0039 22.7695 11.7148C21.8008 11.4258 20.7578 11.2812 19.6406 11.2812C17.9922 11.2812 16.7305 11.6758 15.8555 12.4648C14.9883 13.2539 14.5547 14.2656 14.5547 15.5C14.5547 16.7266 14.9219 17.7383 15.6562 18.5352C16.3906 19.3242 17.4453 19.7188 18.8203 19.7188ZM18.8203 21.4062H20.1094C20.7109 21.4062 21.1445 21.5625 21.4102 21.875C21.6758 22.1875 21.8086 22.5938 21.8086 23.0938C21.8086 24.2188 20.9688 24.7812 19.2891 24.7812C17.7031 24.7812 16.5117 24.5469 15.7148 24.0781L16.3945 23.5625C16.9414 23.8125 17.9062 23.9375 19.2891 23.9375C19.9609 23.9375 20.4102 23.8633 20.6367 23.7148C20.8711 23.5664 20.9883 23.3594 20.9883 23.0938C20.9883 22.8359 20.9219 22.6328 20.7891 22.4844C20.6641 22.3281 20.4297 22.25 20.0859 22.25H18.8203C17.7422 22.25 16.7656 22.0742 15.8906 21.7227C15.0234 21.3711 14.3086 20.8867 13.7461 20.2695C13.1914 19.6523 12.7656 18.9375 12.4688 18.125C12.1719 17.3125 12.0234 16.4375 12.0234 15.5C12.0234 14.75 12.1289 14.0391 12.3398 13.3672C12.5508 12.6953 12.8672 12.0781 13.2891 11.5156C13.7188 10.9531 14.2305 10.4688 14.8242 10.0625C15.4258 9.64844 16.1367 9.32812 16.957 9.10156C17.7852 8.86719 18.6797 8.75 19.6406 8.75C21.1484 8.75 22.5586 8.98047 23.8711 9.44141C25.1836 9.89453 26.2773 10.5312 27.1523 11.3516L26.4727 11.8555C25.6758 11.1367 24.6797 10.582 23.4844 10.1914C22.2891 9.79297 21.0078 9.59375 19.6406 9.59375C18.5703 9.59375 17.6016 9.75 16.7344 10.0625C15.875 10.3672 15.1641 10.7891 14.6016 11.3281C14.0469 11.8672 13.6172 12.4922 13.3125 13.2031C13.0156 13.9141 12.8672 14.6797 12.8672 15.5C12.8672 16.6016 13.0898 17.5938 13.5352 18.4766C13.9805 19.3594 14.6602 20.0703 15.5742 20.6094C16.4883 21.1406 17.5703 21.4062 18.8203 21.4062Z" fill="white"/>
</svg>
