<svg width="20" height="23" viewBox="0 0 20 23" fill="none" xmlns="http://www.w3.org/2000/svg">
<path d="M8.6875 18.5625L5.115 14.99L6.015 14.09L8.6875 16.7637L13.985 11.465L14.885 12.365L8.6875 18.5625ZM2.01875 22.7875C1.44375 22.7875 0.96375 22.595 0.57875 22.21C0.192916 21.8242 0 21.3438 0 20.7687V4.80625C0 4.23125 0.192916 3.75125 0.57875 3.36625C0.96375 2.98042 1.44375 2.7875 2.01875 2.7875H4.23125V0H5.5775V2.7875H14.5187V0H15.7687V2.7875H17.9813C18.5562 2.7875 19.0363 2.98042 19.4213 3.36625C19.8071 3.75125 20 4.23125 20 4.80625V20.7687C20 21.3438 19.8075 21.8237 19.4225 22.2087C19.0367 22.5946 18.5562 22.7875 17.9813 22.7875H2.01875ZM2.01875 21.5375H17.9813C18.1729 21.5375 18.3492 21.4575 18.51 21.2975C18.67 21.1367 18.75 20.9604 18.75 20.7687V9.80625H1.25V20.7687C1.25 20.9604 1.33 21.1367 1.49 21.2975C1.65083 21.4575 1.82708 21.5375 2.01875 21.5375ZM1.25 8.55625H18.75V4.80625C18.75 4.61458 18.67 4.43833 18.51 4.2775C18.3492 4.1175 18.1729 4.0375 17.9813 4.0375H2.01875C1.82708 4.0375 1.65083 4.1175 1.49 4.2775C1.33 4.43833 1.25 4.61458 1.25 4.80625V8.55625Z" fill="#1F8A8B"/>
</svg>
